<?xml version="1.0" standalone="no"?>
<!DOCTYPE svg PUBLIC "-//W3C//DTD SVG 20010904//EN"
 "http://www.w3.org/TR/2001/REC-SVG-20010904/DTD/svg10.dtd">
<svg version="1.0" xmlns="http://www.w3.org/2000/svg"
 width="260.000000pt" height="260.000000pt" viewBox="0 0 260.000000 260.000000"
 preserveAspectRatio="xMidYMid meet">
<metadata>
Created by potrace 1.14, written by Peter Selinger 2001-2017
</metadata>
<g transform="translate(0.000000,260.000000) scale(0.100000,-0.100000)"
fill="#000000" stroke="none">
<path d="M0 1300 l0 -1300 495 0 495 0 -5 28 c-2 15 -11 67 -19 117 -17 99
-44 268 -76 473 -18 120 -32 167 -52 182 -4 3 -17 28 -29 55 -31 70 -38 189
-13 240 36 76 143 86 237 22 47 -33 62 -37 156 -47 171 -17 185 -42 91 -160
-39 -50 -62 -88 -67 -115 -10 -55 -6 -291 8 -400 6 -49 13 -159 16 -242 4
-134 7 -153 21 -153 16 0 16 22 11 257 -4 159 -13 295 -23 355 -28 170 -19
224 45 284 19 18 40 39 47 48 16 20 36 20 56 0 22 -21 20 -95 -4 -172 -22 -72
-25 -184 -13 -560 l6 -212 609 0 608 0 0 1286 0 1286 -61 -54 c-33 -29 -81
-70 -107 -91 -26 -21 -63 -55 -82 -74 -19 -20 -51 -48 -70 -62 -19 -14 -58
-48 -87 -76 -28 -27 -78 -73 -110 -102 -213 -190 -265 -238 -347 -318 -112
-111 -166 -173 -211 -245 -63 -100 -77 -140 -79 -215 -1 -95 -38 -157 -117
-198 -48 -26 -61 -28 -126 -25 -91 6 -163 41 -218 105 -39 46 -40 49 -40 128
-1 44 -6 93 -13 108 -30 71 -2 166 56 190 72 30 123 47 139 47 24 0 136 55
195 95 28 20 75 59 106 88 31 28 79 75 108 102 29 28 88 82 130 120 43 39 107
97 143 131 151 140 187 171 203 180 16 9 100 80 182 156 l41 37 -1117 1 -1118
0 0 -1300z m839 190 c28 -14 46 -34 65 -72 42 -84 33 -133 -38 -208 -24 -25
-54 -61 -66 -80 -37 -54 -73 -90 -92 -90 -64 0 -78 390 -16 452 24 24 98 24
147 -2z"/>
</g>
</svg>
